<?xml version="1.0" encoding="UTF-8" standalone="no"?><svg xmlns="http://www.w3.org/2000/svg" xmlns:xlink="http://www.w3.org/1999/xlink" contentScriptType="application/ecmascript" contentStyleType="text/css" height="940px" preserveAspectRatio="none" style="width:646px;height:940px;" version="1.1" viewBox="0 0 646 940" width="646px" zoomAndPan="magnify"><defs><filter height="300%" id="f3rcoi37y0sf4" width="300%" x="-1" y="-1"><feGaussianBlur result="blurOut" stdDeviation="2.0"/><feColorMatrix in="blurOut" result="blurOut2" type="matrix" values="0 0 0 0 0 0 0 0 0 0 0 0 0 0 0 0 0 0 .4 0"/><feOffset dx="4.0" dy="4.0" in="blurOut2" result="blurOut3"/><feBlend in="SourceGraphic" in2="blurOut3" mode="normal"/></filter></defs><g><ellipse cx="320" cy="18" fill="#000000" filter="url(#f3rcoi37y0sf4)" rx="10" ry="10" style="stroke: none; stroke-width: 1.0;"/><ellipse cx="320" cy="919" fill="none" filter="url(#f3rcoi37y0sf4)" rx="10" ry="10" style="stroke: #000000; stroke-width: 1.0;"/><ellipse cx="320.5" cy="919.5" fill="#000000" rx="6" ry="6" style="stroke: none; stroke-width: 1.0;"/><rect fill="#FFFF00" filter="url(#f3rcoi37y0sf4)" height="209.2656" rx="12.5" ry="12.5" style="stroke: #A80036; stroke-width: 1.5;" width="312" x="164" y="88"/><rect fill="#FFFFFF" height="158" rx="12.5" ry="12.5" style="stroke: #FFFFFF; stroke-width: 1.0;" width="306" x="167" y="136.2656"/><line style="stroke: #A80036; stroke-width: 1.5;" x1="164" x2="476" y1="133.2656" y2="133.2656"/><line style="stroke: #A80036; stroke-width: 1.5;" x1="164" x2="476" y1="114.2969" y2="114.2969"/><text fill="#000000" font-family="sans-serif" font-size="14" lengthAdjust="spacingAndGlyphs" textLength="56" x="292" y="105.9951">立项阶段</text><text fill="#000000" font-family="sans-serif" font-size="12" lengthAdjust="spacingAndGlyphs" textLength="72" x="169" y="125.4355">项目全体成员</text><rect fill="#FEFECE" filter="url(#f3rcoi37y0sf4)" height="50.2656" rx="12.5" ry="12.5" style="stroke: #A80036; stroke-width: 1.5;" width="116" x="175" y="146.2656"/><line style="stroke: #A80036; stroke-width: 1.5;" x1="175" x2="291" y1="172.5625" y2="172.5625"/><text fill="#000000" font-family="sans-serif" font-size="14" lengthAdjust="spacingAndGlyphs" textLength="56" x="205" y="164.2607">需求分析</text><text fill="#000000" font-family="sans-serif" font-size="12" lengthAdjust="spacingAndGlyphs" textLength="96" x="180" y="188.7012">业务方或项目经理</text><rect fill="#FEFECE" filter="url(#f3rcoi37y0sf4)" height="50" rx="12.5" ry="12.5" style="stroke: #A80036; stroke-width: 1.5;" width="76" x="309" y="146.2656"/><line style="stroke: #A80036; stroke-width: 1.5;" x1="309" x2="385" y1="172.5625" y2="172.5625"/><text fill="#000000" font-family="sans-serif" font-size="14" lengthAdjust="spacingAndGlyphs" textLength="56" x="319" y="164.2607">需求评审</text><rect fill="#FEFECE" filter="url(#f3rcoi37y0sf4)" height="50.2656" rx="12.5" ry="12.5" style="stroke: #A80036; stroke-width: 1.5;" width="88" x="252" y="232.2656"/><line style="stroke: #A80036; stroke-width: 1.5;" x1="252" x2="340" y1="258.5625" y2="258.5625"/><text fill="#000000" font-family="sans-serif" font-size="14" lengthAdjust="spacingAndGlyphs" textLength="68" x="262" y="250.2607">demo评审</text><text fill="#000000" font-family="sans-serif" font-size="12" lengthAdjust="spacingAndGlyphs" textLength="24" x="257" y="274.7012">可选</text><rect fill="#FEFECE" filter="url(#f3rcoi37y0sf4)" height="50.2656" rx="12.5" ry="12.5" style="stroke: #A80036; stroke-width: 1.5;" width="80" x="358" y="232.2656"/><line style="stroke: #A80036; stroke-width: 1.5;" x1="358" x2="438" y1="258.5625" y2="258.5625"/><text fill="#000000" font-family="sans-serif" font-size="14" lengthAdjust="spacingAndGlyphs" textLength="56" x="370" y="250.2607">立项确认</text><text fill="#000000" font-family="sans-serif" font-size="12" lengthAdjust="spacingAndGlyphs" textLength="60" x="363" y="274.7012">邮件或短会</text><path d="M291.3359,171.2656 C295.4129,171.2656 299.4899,171.2656 303.5668,171.2656 " fill="none" id="需求分析-&gt;需求评审" style="stroke: #A80036; stroke-width: 1.0;"/><polygon fill="#A80036" points="308.731,171.2656,299.731,167.2656,303.731,171.2656,299.731,175.2656,308.731,171.2656" style="stroke: #A80036; stroke-width: 1.0;"/><path d="M331.9742,196.6033 C326.2157,206.3137 319.5947,217.4785 313.6152,227.5615 " fill="none" id="需求评审-&gt;demo评审" style="stroke: #A80036; stroke-width: 1.0;"/><polygon fill="#A80036" points="310.9184,232.109,318.9496,226.4082,313.4688,227.8084,312.0686,222.3276,310.9184,232.109" style="stroke: #A80036; stroke-width: 1.0;"/><path d="M362.0258,196.6033 C367.7843,206.3137 374.4053,217.4785 380.3848,227.5615 " fill="none" id="需求评审-&gt;立项确认" style="stroke: #A80036; stroke-width: 1.0;"/><polygon fill="#A80036" points="383.0816,232.109,381.9314,222.3276,380.5312,227.8084,375.0504,226.4082,383.0816,232.109" style="stroke: #A80036; stroke-width: 1.0;"/><path d="M340.2266,257.2656 C344.3522,257.2656 348.4779,257.2656 352.6036,257.2656 " fill="none" id="demo评审-&gt;立项确认" style="stroke: #A80036; stroke-width: 1.0;"/><polygon fill="#A80036" points="357.8294,257.2656,348.8294,253.2656,352.8294,257.2656,348.8294,261.2656,357.8294,257.2656" style="stroke: #A80036; stroke-width: 1.0;"/><rect fill="#FFFF00" filter="url(#f3rcoi37y0sf4)" height="295.2656" rx="12.5" ry="12.5" style="stroke: #A80036; stroke-width: 1.5;" width="628" x="6" y="357"/><rect fill="#FFFFFF" height="244" rx="12.5" ry="12.5" style="stroke: #FFFFFF; stroke-width: 1.0;" width="622" x="9" y="405.2656"/><line style="stroke: #A80036; stroke-width: 1.5;" x1="6" x2="634" y1="402.2656" y2="402.2656"/><line style="stroke: #A80036; stroke-width: 1.5;" x1="6" x2="634" y1="383.2969" y2="383.2969"/><text fill="#000000" font-family="sans-serif" font-size="14" lengthAdjust="spacingAndGlyphs" textLength="56" x="292" y="374.9951">开发阶段</text><text fill="#000000" font-family="sans-serif" font-size="12" lengthAdjust="spacingAndGlyphs" textLength="82" x="11" y="394.4355">项目经理&amp;技术</text><rect fill="#FEFECE" filter="url(#f3rcoi37y0sf4)" height="50" rx="12.5" ry="12.5" style="stroke: #A80036; stroke-width: 1.5;" width="76" x="17" y="415.2656"/><line style="stroke: #A80036; stroke-width: 1.5;" x1="17" x2="93" y1="441.5625" y2="441.5625"/><text fill="#000000" font-family="sans-serif" font-size="14" lengthAdjust="spacingAndGlyphs" textLength="56" x="27" y="433.2607">概要设计</text><rect fill="#FEFECE" filter="url(#f3rcoi37y0sf4)" height="50" rx="12.5" ry="12.5" style="stroke: #A80036; stroke-width: 1.5;" width="76" x="111" y="415.2656"/><line style="stroke: #A80036; stroke-width: 1.5;" x1="111" x2="187" y1="441.5625" y2="441.5625"/><text fill="#000000" font-family="sans-serif" font-size="14" lengthAdjust="spacingAndGlyphs" textLength="56" x="121" y="433.2607">详细设计</text><rect fill="#FEFECE" filter="url(#f3rcoi37y0sf4)" height="50" rx="12.5" ry="12.5" style="stroke: #A80036; stroke-width: 1.5;" width="76" x="205" y="415.2656"/><line style="stroke: #A80036; stroke-width: 1.5;" x1="205" x2="281" y1="441.5625" y2="441.5625"/><text fill="#000000" font-family="sans-serif" font-size="14" lengthAdjust="spacingAndGlyphs" textLength="56" x="215" y="433.2607">设计评审</text><rect fill="#FEFECE" filter="url(#f3rcoi37y0sf4)" height="50.2656" rx="12.5" ry="12.5" style="stroke: #A80036; stroke-width: 1.5;" width="95" x="195.5" y="501.2656"/><line style="stroke: #A80036; stroke-width: 1.5;" x1="195.5" x2="290.5" y1="527.5625" y2="527.5625"/><text fill="#000000" font-family="sans-serif" font-size="14" lengthAdjust="spacingAndGlyphs" textLength="75" x="205.5" y="519.2607">开发coding</text><text fill="#000000" font-family="sans-serif" font-size="12" lengthAdjust="spacingAndGlyphs" textLength="60" x="200.5" y="543.7012">开发工程师</text><rect fill="#FEFECE" filter="url(#f3rcoi37y0sf4)" height="50.2656" rx="12.5" ry="12.5" style="stroke: #A80036; stroke-width: 1.5;" width="92" x="309" y="501.2656"/><line style="stroke: #A80036; stroke-width: 1.5;" x1="309" x2="401" y1="527.5625" y2="527.5625"/><text fill="#000000" font-family="sans-serif" font-size="14" lengthAdjust="spacingAndGlyphs" textLength="72" x="319" y="519.2607">代码review</text><text fill="#000000" font-family="sans-serif" font-size="12" lengthAdjust="spacingAndGlyphs" textLength="60" x="314" y="543.7012">开发工程师</text><rect fill="#FEFECE" filter="url(#f3rcoi37y0sf4)" height="50.2656" rx="12.5" ry="12.5" style="stroke: #A80036; stroke-width: 1.5;" width="90" x="310" y="587.2656"/><line style="stroke: #A80036; stroke-width: 1.5;" x1="310" x2="400" y1="613.5625" y2="613.5625"/><text fill="#000000" font-family="sans-serif" font-size="14" lengthAdjust="spacingAndGlyphs" textLength="70" x="320" y="605.2607">自测和联调</text><text fill="#000000" font-family="sans-serif" font-size="12" lengthAdjust="spacingAndGlyphs" textLength="60" x="315" y="629.7012">开发工程师</text><rect fill="#FEFECE" filter="url(#f3rcoi37y0sf4)" height="50.2656" rx="12.5" ry="12.5" style="stroke: #A80036; stroke-width: 1.5;" width="80" x="418" y="587.2656"/><line style="stroke: #A80036; stroke-width: 1.5;" x1="418" x2="498" y1="613.5625" y2="613.5625"/><text fill="#000000" font-family="sans-serif" font-size="14" lengthAdjust="spacingAndGlyphs" textLength="28" x="444" y="605.2607">测试</text><text fill="#000000" font-family="sans-serif" font-size="12" lengthAdjust="spacingAndGlyphs" textLength="60" x="423" y="629.7012">测试工程师</text><rect fill="#FEFECE" filter="url(#f3rcoi37y0sf4)" height="50.2656" rx="12.5" ry="12.5" style="stroke: #A80036; stroke-width: 1.5;" width="80" x="516" y="587.2656"/><line style="stroke: #A80036; stroke-width: 1.5;" x1="516" x2="596" y1="613.5625" y2="613.5625"/><text fill="#000000" font-family="sans-serif" font-size="14" lengthAdjust="spacingAndGlyphs" textLength="41" x="535.5" y="605.2607">bugfix</text><text fill="#000000" font-family="sans-serif" font-size="12" lengthAdjust="spacingAndGlyphs" textLength="60" x="521" y="629.7012">开发工程师</text><path d="M93.1875,440.2656 C97.2753,440.2656 101.3632,440.2656 105.451,440.2656 " fill="none" id="概要设计-&gt;详细设计" style="stroke: #A80036; stroke-width: 1.0;"/><polygon fill="#A80036" points="110.6289,440.2656,101.6289,436.2656,105.6289,440.2656,101.6289,444.2656,110.6289,440.2656" style="stroke: #A80036; stroke-width: 1.0;"/><path d="M187.1875,440.2656 C191.2753,440.2656 195.3632,440.2656 199.451,440.2656 " fill="none" id="详细设计-&gt;设计评审" style="stroke: #A80036; stroke-width: 1.0;"/><polygon fill="#A80036" points="204.6289,440.2656,195.6289,436.2656,199.6289,440.2656,195.6289,444.2656,204.6289,440.2656" style="stroke: #A80036; stroke-width: 1.0;"/><path d="M243,465.6033 C243,475.1387 243,486.0766 243,496.0154 " fill="none" id="设计评审-&gt;开发coding" style="stroke: #A80036; stroke-width: 1.0;"/><polygon fill="#A80036" points="243,501.109,247,492.109,243,496.109,239,492.109,243,501.109" style="stroke: #A80036; stroke-width: 1.0;"/><path d="M290.6875,544.6025 C295.0211,545.0332 299.3546,545.1271 303.6882,544.8842 " fill="none" id="开发coding-&gt;代码review" style="stroke: #A80036; stroke-width: 1.0;"/><polygon fill="#A80036" points="308.7754,544.4443,299.4642,541.2347,303.794,544.8752,300.1536,549.205,308.7754,544.4443" style="stroke: #A80036; stroke-width: 1.0;"/><path d="M308.7754,508.0869 C304.4418,507.5804 300.1083,507.4107 295.7747,507.5778 " fill="none" id="代码review-&gt;开发coding" style="stroke: #A80036; stroke-width: 1.0;"/><polygon fill="#A80036" points="290.6875,507.9287,299.9415,511.2998,295.6756,507.5846,299.3908,503.3188,290.6875,507.9287" style="stroke: #A80036; stroke-width: 1.0;"/><path d="M355,551.6033 C355,561.1387 355,572.0766 355,582.0154 " fill="none" id="代码review-&gt;自测和联调" style="stroke: #A80036; stroke-width: 1.0;"/><polygon fill="#A80036" points="355,587.109,359,578.109,355,582.109,351,578.109,355,587.109" style="stroke: #A80036; stroke-width: 1.0;"/><path d="M400.0625,612.2656 C404.1999,612.2656 408.3373,612.2656 412.4746,612.2656 " fill="none" id="自测和联调-&gt;测试" style="stroke: #A80036; stroke-width: 1.0;"/><polygon fill="#A80036" points="417.7153,612.2656,408.7153,608.2656,412.7153,612.2656,408.7153,616.2656,417.7153,612.2656" style="stroke: #A80036; stroke-width: 1.0;"/><path d="M498.1953,630.4102 C502.3232,630.9779 506.4511,631.1463 510.579,630.9156 " fill="none" id="测试-&gt;bugfix" style="stroke: #A80036; stroke-width: 1.0;"/><polygon fill="#A80036" points="515.8077,630.4098,506.4644,627.295,510.8309,630.8912,507.2347,635.2578,515.8077,630.4098" style="stroke: #A80036; stroke-width: 1.0;"/><path d="M515.8077,594.1214 C511.6798,593.5536 507.5519,593.3849 503.424,593.6155 " fill="none" id="bugfix-&gt;测试" style="stroke: #A80036; stroke-width: 1.0;"/><polygon fill="#A80036" points="498.1953,594.121,507.5385,597.2364,503.1721,593.6399,506.7686,589.2735,498.1953,594.121" style="stroke: #A80036; stroke-width: 1.0;"/><rect fill="#FFFF00" filter="url(#f3rcoi37y0sf4)" height="137.2344" rx="12.5" ry="12.5" style="stroke: #A80036; stroke-width: 1.5;" width="221" x="209.5" y="712"/><rect fill="#FFFFFF" height="72" rx="12.5" ry="12.5" style="stroke: #FFFFFF; stroke-width: 1.0;" width="215" x="212.5" y="774.2344"/><line style="stroke: #A80036; stroke-width: 1.5;" x1="209.5" x2="430.5" y1="771.2344" y2="771.2344"/><line style="stroke: #A80036; stroke-width: 1.5;" x1="209.5" x2="430.5" y1="738.2969" y2="738.2969"/><text fill="#000000" font-family="sans-serif" font-size="14" lengthAdjust="spacingAndGlyphs" textLength="56" x="292" y="729.9951">交付阶段</text><text fill="#000000" font-family="sans-serif" font-size="12" lengthAdjust="spacingAndGlyphs" textLength="72" x="214.5" y="749.4355">项目全体成员</text><text fill="#000000" font-family="sans-serif" font-size="12" lengthAdjust="spacingAndGlyphs" textLength="0" x="218.5" y="763.4043"/><rect fill="#FEFECE" filter="url(#f3rcoi37y0sf4)" height="50.2656" rx="12.5" ry="12.5" style="stroke: #A80036; stroke-width: 1.5;" width="104" x="220.5" y="784.2344"/><line style="stroke: #A80036; stroke-width: 1.5;" x1="220.5" x2="324.5" y1="810.5313" y2="810.5313"/><text fill="#000000" font-family="sans-serif" font-size="14" lengthAdjust="spacingAndGlyphs" textLength="84" x="230.5" y="802.2295">内部预演验收</text><text fill="#000000" font-family="sans-serif" font-size="12" lengthAdjust="spacingAndGlyphs" textLength="24" x="225.5" y="826.6699">可选</text><rect fill="#FEFECE" filter="url(#f3rcoi37y0sf4)" height="50" rx="12.5" ry="12.5" style="stroke: #A80036; stroke-width: 1.5;" width="50" x="342.5" y="784.2344"/><line style="stroke: #A80036; stroke-width: 1.5;" x1="342.5" x2="392.5" y1="810.5313" y2="810.5313"/><text fill="#000000" font-family="sans-serif" font-size="14" lengthAdjust="spacingAndGlyphs" textLength="28" x="353.5" y="802.2295">上线</text><path d="M324.8242,809.2344 C328.9657,809.2344 333.1072,809.2344 337.2487,809.2344 " fill="none" id="内部预演验收-&gt;上线" style="stroke: #A80036; stroke-width: 1.0;"/><polygon fill="#A80036" points="342.4947,809.2344,333.4947,805.2344,337.4947,809.2344,333.4947,813.2344,342.4947,809.2344" style="stroke: #A80036; stroke-width: 1.0;"/><path d="M320,28.1361 C320,39.7676 320,60.166 320,82.7207 " fill="none" id="*start-&gt;立项阶段" style="stroke: #A80036; stroke-width: 1.0;"/><polygon fill="#A80036" points="320,87.8723,324,78.8723,320,82.8723,316,78.8723,320,87.8723" style="stroke: #A80036; stroke-width: 1.0;"/><path d="M320,297.2594 C320,314.7356 320,333.1769 320,351.5615 " fill="none" id="立项阶段-&gt;开发阶段" style="stroke: #A80036; stroke-width: 1.0;"/><polygon fill="#A80036" points="320,356.7446,324,347.7446,320,351.7446,316,347.7446,320,356.7446" style="stroke: #A80036; stroke-width: 1.0;"/><path d="M320,652.196 C320,671.0124 320,689.5872 320,706.5119 " fill="none" id="开发阶段-&gt;交付阶段" style="stroke: #A80036; stroke-width: 1.0;"/><polygon fill="#A80036" points="320,711.7099,324,702.7099,320,706.7099,316,702.7099,320,711.7099" style="stroke: #A80036; stroke-width: 1.0;"/><path d="M320,849.3442 C320,869.7792 320,890.2612 320,903.6723 " fill="none" id="交付阶段-&gt;*end" style="stroke: #A80036; stroke-width: 1.0;"/><polygon fill="#A80036" points="320,908.9663,324,899.9663,320,903.9663,316,899.9663,320,908.9663" style="stroke: #A80036; stroke-width: 1.0;"/></g></svg>